<svg width="64" height="64" viewBox="0 0 64 64" fill="none" xmlns="http://www.w3.org/2000/svg">
<path d="M2.66667 50.6666H1.91667C1.91667 51.0808 2.25246 51.4166 2.66667 51.4166V50.6666ZM8.00001 51.4166C8.41422 51.4166 8.75001 51.0808 8.75001 50.6666C8.75001 50.2524 8.41422 49.9166 8.00001 49.9166V51.4166ZM10.8536 38.3957C11.2548 38.2924 11.4962 37.8835 11.393 37.4824C11.2898 37.0812 10.8809 36.8398 10.4797 36.943L10.8536 38.3957ZM15.7501 29.5853C16.1406 29.7233 16.5691 29.5186 16.7071 29.1281C16.8452 28.7375 16.6405 28.309 16.2499 28.171L15.7501 29.5853ZM16.2499 14.4957C16.6405 14.3576 16.8452 13.9292 16.7071 13.5386C16.5691 13.1481 16.1406 12.9434 15.7501 13.0814L16.2499 14.4957ZM61.3333 50.6666V51.4166C61.7476 51.4166 62.0833 51.0808 62.0833 50.6666H61.3333ZM56 49.9166C55.5858 49.9166 55.25 50.2524 55.25 50.6666C55.25 51.0808 55.5858 51.4166 56 51.4166V49.9166ZM53.5203 36.943C53.1191 36.8398 52.7103 37.0812 52.607 37.4824C52.5038 37.8835 52.7453 38.2924 53.1464 38.3957L53.5203 36.943ZM48.2499 13.0814C47.8594 12.9434 47.4309 13.1481 47.2929 13.5386C47.1548 13.9292 47.3595 14.3576 47.7501 14.4957L48.2499 13.0814ZM47.7501 28.171C47.3595 28.309 47.1548 28.7375 47.2929 29.1281C47.4309 29.5186 47.8594 29.7233 48.2499 29.5853L47.7501 28.171ZM48 50.6666V51.4166C48.4142 51.4166 48.75 51.0809 48.75 50.6666H48ZM16 50.6666H15.25C15.25 51.0809 15.5858 51.4166 16 51.4166V50.6666ZM1.91667 47.9999V50.6666H3.41667V47.9999H1.91667ZM2.66667 51.4166H8.00001V49.9166H2.66667V51.4166ZM3.41667 47.9999C3.41667 43.3802 6.57633 39.4966 10.8536 38.3957L10.4797 36.943C5.5558 38.2103 1.91667 42.6792 1.91667 47.9999H3.41667ZM9.91667 21.3333C9.91667 25.1443 12.3526 28.3844 15.7501 29.5853L16.2499 28.171C13.433 27.1754 11.4167 24.4889 11.4167 21.3333H9.91667ZM15.7501 13.0814C12.3526 14.2823 9.91667 17.5224 9.91667 21.3333H11.4167C11.4167 18.1778 13.433 15.4913 16.2499 14.4957L15.7501 13.0814ZM60.5833 47.9999V50.6666H62.0833V47.9999H60.5833ZM61.3333 49.9166H56V51.4166H61.3333V49.9166ZM62.0833 47.9999C62.0833 42.6792 58.4442 38.2103 53.5203 36.943L53.1464 38.3957C57.4237 39.4966 60.5833 43.3802 60.5833 47.9999H62.0833ZM47.7501 14.4957C50.567 15.4913 52.5833 18.1778 52.5833 21.3333H54.0833C54.0833 17.5224 51.6474 14.2823 48.2499 13.0814L47.7501 14.4957ZM52.5833 21.3333C52.5833 24.4889 50.567 27.1754 47.7501 28.171L48.2499 29.5853C51.6474 28.3844 54.0833 25.1443 54.0833 21.3333H52.5833ZM26.6667 38.0833H37.3333V36.5833H26.6667V38.0833ZM47.25 48V50.6666H48.75V48H47.25ZM16.75 50.6666V48H15.25V50.6666H16.75ZM37.3333 38.0833C42.8102 38.0833 47.25 42.5232 47.25 48H48.75C48.75 41.6947 43.6386 36.5833 37.3333 36.5833V38.0833ZM26.6667 36.5833C20.3614 36.5833 15.25 41.6947 15.25 48H16.75C16.75 42.5232 21.1898 38.0833 26.6667 38.0833V36.5833ZM48 49.9166H16V51.4166H48V49.9166ZM39.25 21.3333C39.25 25.3374 36.0041 28.5833 32 28.5833V30.0833C36.8325 30.0833 40.75 26.1658 40.75 21.3333H39.25ZM32 28.5833C27.9959 28.5833 24.75 25.3374 24.75 21.3333H23.25C23.25 26.1658 27.1675 30.0833 32 30.0833V28.5833ZM24.75 21.3333C24.75 17.3292 27.9959 14.0833 32 14.0833V12.5833C27.1675 12.5833 23.25 16.5008 23.25 21.3333H24.75ZM32 14.0833C36.0041 14.0833 39.25 17.3292 39.25 21.3333H40.75C40.75 16.5008 36.8325 12.5833 32 12.5833V14.0833Z" fill="#C9E0E0"/>
</svg>
