<svg width="24" height="25" viewBox="0 0 24 25" fill="none" xmlns="http://www.w3.org/2000/svg">
<path d="M1 19.5H0.25C0.25 19.9142 0.585786 20.25 1 20.25L1 19.5ZM3 20.25C3.41421 20.25 3.75 19.9142 3.75 19.5C3.75 19.0858 3.41421 18.75 3 18.75V20.25ZM4.18694 15.3523C4.58808 15.2491 4.82957 14.8402 4.72633 14.4391C4.62308 14.0379 4.2142 13.7964 3.81306 13.8997L4.18694 15.3523ZM5.75007 12.0364C6.1406 12.1745 6.5691 11.9698 6.70713 11.5792C6.84516 11.1887 6.64047 10.7602 6.24993 10.6222L5.75007 12.0364ZM6.24993 6.37785C6.64047 6.23981 6.84516 5.81132 6.70713 5.42078C6.56909 5.03024 6.1406 4.82555 5.75007 4.96359L6.24993 6.37785ZM23 19.5V20.25C23.4142 20.25 23.75 19.9142 23.75 19.5H23ZM21 18.75C20.5858 18.75 20.25 19.0858 20.25 19.5C20.25 19.9142 20.5858 20.25 21 20.25V18.75ZM20.1869 13.8997C19.7858 13.7964 19.3769 14.0379 19.2737 14.4391C19.1704 14.8402 19.4119 15.2491 19.8131 15.3523L20.1869 13.8997ZM18.2499 4.96359C17.8594 4.82555 17.4309 5.03024 17.2929 5.42078C17.1548 5.81132 17.3595 6.23981 17.7501 6.37785L18.2499 4.96359ZM17.7501 10.6222C17.3595 10.7602 17.1548 11.1887 17.2929 11.5792C17.4309 11.9698 17.8594 12.1745 18.2499 12.0364L17.7501 10.6222ZM18 19.5V20.25C18.4142 20.25 18.75 19.9142 18.75 19.5H18ZM6 19.5H5.25C5.25 19.9142 5.58579 20.25 6 20.25V19.5ZM0.25 18.5V19.5H1.75V18.5H0.25ZM1 20.25H3V18.75H1V20.25ZM1.75 18.5C1.75 16.9866 2.78504 15.7132 4.18694 15.3523L3.81306 13.8997C1.76451 14.4269 0.25 16.2857 0.25 18.5H1.75ZM3.25 8.50001C3.25 10.134 4.29459 11.522 5.75007 12.0364L6.24993 10.6222C5.37503 10.3129 4.75 9.4785 4.75 8.50001H3.25ZM5.75007 4.96359C4.29459 5.47802 3.25 6.86606 3.25 8.50001H4.75C4.75 7.52152 5.37503 6.68708 6.24993 6.37785L5.75007 4.96359ZM22.25 18.5V19.5H23.75V18.5H22.25ZM23 18.75H21V20.25H23V18.75ZM23.75 18.5C23.75 16.2857 22.2355 14.4269 20.1869 13.8997L19.8131 15.3523C21.215 15.7132 22.25 16.9866 22.25 18.5H23.75ZM17.7501 6.37785C18.625 6.68708 19.25 7.52152 19.25 8.50001H20.75C20.75 6.86606 19.7054 5.47802 18.2499 4.96359L17.7501 6.37785ZM19.25 8.50001C19.25 9.4785 18.625 10.3129 17.7501 10.6222L18.2499 12.0364C19.7054 11.522 20.75 10.134 20.75 8.50001H19.25ZM10 15.25H14V13.75H10V15.25ZM17.25 18.5V19.5H18.75V18.5H17.25ZM6.75 19.5V18.5H5.25V19.5H6.75ZM14 15.25C15.7949 15.25 17.25 16.7051 17.25 18.5H18.75C18.75 15.8766 16.6234 13.75 14 13.75V15.25ZM10 13.75C7.37665 13.75 5.25 15.8766 5.25 18.5H6.75C6.75 16.7051 8.20507 15.25 10 15.25V13.75ZM18 18.75H6V20.25H18V18.75ZM14.25 8.5C14.25 9.74264 13.2426 10.75 12 10.75V12.25C14.0711 12.25 15.75 10.5711 15.75 8.5H14.25ZM12 10.75C10.7574 10.75 9.75 9.74264 9.75 8.5H8.25C8.25 10.5711 9.92893 12.25 12 12.25V10.75ZM9.75 8.5C9.75 7.25736 10.7574 6.25 12 6.25V4.75C9.92893 4.75 8.25 6.42893 8.25 8.5H9.75ZM12 6.25C13.2426 6.25 14.25 7.25736 14.25 8.5H15.75C15.75 6.42893 14.0711 4.75 12 4.75V6.25Z" fill="white"/>
</svg>
