<svg width="24" height="25" viewBox="0 0 24 25" fill="none" xmlns="http://www.w3.org/2000/svg">
<path d="M19.4697 21.0303C19.7626 21.3232 20.2374 21.3232 20.5303 21.0303C20.8232 20.7375 20.8232 20.2626 20.5303 19.9697L19.4697 21.0303ZM16.3336 15.773C16.0407 15.4801 15.5659 15.4801 15.273 15.773C14.9801 16.0659 14.9801 16.5408 15.273 16.8336L16.3336 15.773ZM10.5 17.75C6.77208 17.75 3.75 14.7279 3.75 11H2.25C2.25 15.5563 5.94365 19.25 10.5 19.25V17.75ZM3.75 11C3.75 7.27208 6.77208 4.25 10.5 4.25V2.75C5.94365 2.75 2.25 6.44365 2.25 11H3.75ZM10.5 4.25C14.2279 4.25 17.25 7.27208 17.25 11H18.75C18.75 6.44365 15.0563 2.75 10.5 2.75V4.25ZM17.25 11C17.25 14.7279 14.2279 17.75 10.5 17.75V19.25C15.0563 19.25 18.75 15.5563 18.75 11H17.25ZM20.5303 19.9697L16.3336 15.773L15.273 16.8336L19.4697 21.0303L20.5303 19.9697Z" fill="white"/>
</svg>
